<svg width="1598" height="200" viewBox="0 0 1598 200" fill="none" xmlns="http://www.w3.org/2000/svg">
<rect width="200" height="1600" transform="matrix(4.37114e-08 -1 -1 -4.37114e-08 1598 200)" fill="black"/>
<rect width="200" height="1600" transform="matrix(4.37114e-08 -1 -1 -4.37114e-08 1598 200)" fill="url(#paint0_radial_1777_435)"/>
<rect width="200" height="1600" transform="matrix(4.37114e-08 -1 -1 -4.37114e-08 1598 200)" fill="url(#paint1_radial_1777_435)"/>
<rect width="200" height="1600" transform="matrix(4.37114e-08 -1 -1 -4.37114e-08 1598 200)" fill="url(#paint2_radial_1777_435)"/>
<rect width="200" height="1600" transform="matrix(4.37114e-08 -1 -1 -4.37114e-08 1598 200)" fill="url(#paint3_radial_1777_435)"/>
<defs>
<radialGradient id="paint0_radial_1777_435" cx="0" cy="0" r="1" gradientUnits="userSpaceOnUse" gradientTransform="translate(-48.3051 487.009) rotate(58.4701) scale(304.631 494.906)">
<stop stop-color="#0565FF"/>
<stop offset="0.744792" stop-color="#0565FF" stop-opacity="0"/>
</radialGradient>
<radialGradient id="paint1_radial_1777_435" cx="0" cy="0" r="1" gradientUnits="userSpaceOnUse" gradientTransform="translate(260.381 1568.58) rotate(-102.845) scale(572.233 233.318)">
<stop stop-color="#C72C91"/>
<stop offset="1" stop-color="#C72C91" stop-opacity="0"/>
</radialGradient>
<radialGradient id="paint2_radial_1777_435" cx="0" cy="0" r="1" gradientUnits="userSpaceOnUse" gradientTransform="translate(-53.8135 1966.16) rotate(-79.793) scale(831.319 349.454)">
<stop stop-color="#F58220"/>
<stop offset="1" stop-color="#F58220" stop-opacity="0"/>
</radialGradient>
<radialGradient id="paint3_radial_1777_435" cx="0" cy="0" r="1" gradientUnits="userSpaceOnUse" gradientTransform="translate(175.212 -398.792) rotate(92.8419) scale(821.135 148.189)">
<stop stop-color="#4AA147"/>
<stop offset="1" stop-color="#4AA147" stop-opacity="0"/>
</radialGradient>
</defs>
</svg>
