<svg width="260" height="33" viewBox="0 0 260 33" fill="none" xmlns="http://www.w3.org/2000/svg">
<path d="M28.2604 14.2628C31.4366 11.1076 32.479 7.00724 30.5887 5.10439C28.6985 3.20154 24.5913 4.21677 21.4151 7.37197C18.2389 10.5272 17.1964 14.6275 19.0867 16.5304C20.977 18.4332 25.0842 17.418 28.2604 14.2628Z" fill="#1F80FF"/>
<path d="M27.1301 28.7441C28.5532 27.3105 27.8611 24.3162 25.5844 22.0562C23.3077 19.7961 20.3084 19.126 18.8853 20.5596C17.4622 21.9931 18.1542 24.9874 20.431 27.2475C22.7077 29.5076 25.707 30.1777 27.1301 28.7441Z" fill="#4AA147"/>
<path d="M14.9247 16.5899C16.8149 14.6871 15.7725 10.5867 12.5963 7.43155C9.42009 4.27635 5.31291 3.26112 3.42264 5.16397C1.53237 7.06681 2.57482 11.1672 5.75101 14.3224C8.92721 17.4776 13.0344 18.4928 14.9247 16.5899Z" fill="#CF2C91"/>
<path d="M13.5922 27.1323C15.869 24.8722 16.561 21.8779 15.1379 20.4444C13.7148 19.0108 10.7155 19.6809 8.43878 21.9409C6.16205 24.201 5.47005 27.1953 6.89314 28.6289C8.31623 30.0625 11.3155 29.3924 13.5922 27.1323Z" fill="#F58220"/>
<path d="M57.0586 14.2031H54.6211C54.5273 13.6823 54.3529 13.224 54.0977 12.8281C53.8424 12.4323 53.5299 12.0964 53.1602 11.8203C52.7904 11.5443 52.3763 11.3359 51.918 11.1953C51.4648 11.0547 50.9831 10.9844 50.4727 10.9844C49.5508 10.9844 48.7253 11.2161 47.9961 11.6797C47.2721 12.1432 46.6992 12.8229 46.2773 13.7187C45.8607 14.6146 45.6523 15.7083 45.6523 17C45.6523 18.3021 45.8607 19.401 46.2773 20.2969C46.6992 21.1927 47.2747 21.8698 48.0039 22.3281C48.7331 22.7865 49.5534 23.0156 50.4648 23.0156C50.9701 23.0156 51.4492 22.9479 51.9023 22.8125C52.3607 22.6719 52.7747 22.4661 53.1445 22.1953C53.5143 21.9245 53.8268 21.5937 54.082 21.2031C54.3424 20.8073 54.5221 20.3542 54.6211 19.8438L57.0586 19.8516C56.9284 20.638 56.6758 21.362 56.3008 22.0234C55.931 22.6797 55.4544 23.2474 54.8711 23.7266C54.293 24.2005 53.6315 24.5677 52.8867 24.8281C52.1419 25.0885 51.3294 25.2187 50.4492 25.2187C49.0638 25.2187 47.8294 24.8906 46.7461 24.2344C45.6628 23.5729 44.8086 22.6276 44.1836 21.3984C43.5638 20.1693 43.2539 18.7031 43.2539 17C43.2539 15.2917 43.5664 13.8255 44.1914 12.6016C44.8164 11.3724 45.6706 10.4297 46.7539 9.77344C47.8372 9.11198 49.069 8.78125 50.4492 8.78125C51.2982 8.78125 52.0898 8.90365 52.8242 9.14844C53.5638 9.38802 54.2279 9.74219 54.8164 10.2109C55.4049 10.6745 55.8919 11.2422 56.2773 11.9141C56.6628 12.5807 56.9232 13.3437 57.0586 14.2031ZM64.8145 25.2422C63.6895 25.2422 62.7077 24.9844 61.8691 24.4687C61.0306 23.9531 60.3796 23.2318 59.916 22.3047C59.4525 21.3776 59.2207 20.2943 59.2207 19.0547C59.2207 17.8099 59.4525 16.7214 59.916 15.7891C60.3796 14.8568 61.0306 14.1328 61.8691 13.6172C62.7077 13.1016 63.6895 12.8438 64.8145 12.8438C65.9395 12.8438 66.9212 13.1016 67.7598 13.6172C68.5983 14.1328 69.2493 14.8568 69.7129 15.7891C70.1764 16.7214 70.4082 17.8099 70.4082 19.0547C70.4082 20.2943 70.1764 21.3776 69.7129 22.3047C69.2493 23.2318 68.5983 23.9531 67.7598 24.4687C66.9212 24.9844 65.9395 25.2422 64.8145 25.2422ZM64.8223 23.2812C65.5514 23.2812 66.1556 23.0885 66.6348 22.7031C67.1139 22.3177 67.4681 21.8047 67.6973 21.1641C67.9316 20.5234 68.0488 19.8177 68.0488 19.0469C68.0488 18.2812 67.9316 17.5781 67.6973 16.9375C67.4681 16.2917 67.1139 15.7734 66.6348 15.3828C66.1556 14.9922 65.5514 14.7969 64.8223 14.7969C64.0879 14.7969 63.4785 14.9922 62.9941 15.3828C62.515 15.7734 62.1582 16.2917 61.9238 16.9375C61.6947 17.5781 61.5801 18.2812 61.5801 19.0469C61.5801 19.8177 61.6947 20.5234 61.9238 21.1641C62.1582 21.8047 62.515 22.3177 62.9941 22.7031C63.4785 23.0885 64.0879 23.2812 64.8223 23.2812ZM73.0156 25V13H75.2734V14.9062H75.3984C75.6172 14.2604 76.0026 13.7526 76.5547 13.3828C77.112 13.0078 77.7422 12.8203 78.4453 12.8203C78.5911 12.8203 78.763 12.8255 78.9609 12.8359C79.1641 12.8464 79.3229 12.8594 79.4375 12.875V15.1094C79.3438 15.0833 79.1771 15.0547 78.9375 15.0234C78.6979 14.987 78.4583 14.9687 78.2188 14.9687C77.6667 14.9687 77.1745 15.0859 76.7422 15.3203C76.3151 15.5495 75.9766 15.8698 75.7266 16.2812C75.4766 16.6875 75.3516 17.151 75.3516 17.6719V25H73.0156ZM84.8438 25.2656C84.0833 25.2656 83.3958 25.125 82.7813 24.8437C82.1667 24.5573 81.6797 24.1432 81.3203 23.6016C80.9661 23.0599 80.7891 22.3958 80.7891 21.6094C80.7891 20.9323 80.9193 20.375 81.1797 19.9375C81.4401 19.5 81.7917 19.1536 82.2344 18.8984C82.6771 18.6432 83.1719 18.4505 83.7188 18.3203C84.2656 18.1901 84.8229 18.0911 85.3906 18.0234C86.1094 17.9401 86.6927 17.8724 87.1406 17.8203C87.5885 17.763 87.9141 17.6719 88.1172 17.5469C88.3203 17.4219 88.4219 17.2187 88.4219 16.9375V16.8828C88.4219 16.2005 88.2292 15.6719 87.8438 15.2969C87.4635 14.9219 86.8958 14.7344 86.1406 14.7344C85.3542 14.7344 84.7344 14.9089 84.2813 15.2578C83.8333 15.6016 83.5234 15.9844 83.3516 16.4062L81.1562 15.9062C81.4167 15.1771 81.7969 14.5885 82.2969 14.1406C82.8021 13.6875 83.3828 13.3594 84.0391 13.1562C84.6953 12.9479 85.3854 12.8438 86.1094 12.8438C86.5885 12.8438 87.0964 12.901 87.6328 13.0156C88.1745 13.125 88.6797 13.3281 89.1484 13.625C89.6224 13.9219 90.0104 14.3464 90.3125 14.8984C90.6146 15.4453 90.7656 16.1563 90.7656 17.0313V25H88.4844V23.3594H88.3906C88.2396 23.6615 88.013 23.9583 87.7109 24.25C87.4089 24.5417 87.0208 24.7839 86.5469 24.9766C86.0729 25.1693 85.5052 25.2656 84.8438 25.2656ZM85.3516 23.3906C85.9974 23.3906 86.5495 23.263 87.0078 23.0078C87.4714 22.7526 87.8229 22.4193 88.0625 22.0078C88.3073 21.5911 88.4297 21.1458 88.4297 20.6719V19.125C88.3464 19.2083 88.1849 19.2865 87.9453 19.3594C87.7109 19.4271 87.4427 19.487 87.1406 19.5391C86.8385 19.5859 86.5443 19.6302 86.2578 19.6719C85.9714 19.7083 85.7318 19.7396 85.5391 19.7656C85.0859 19.8229 84.6719 19.9193 84.2969 20.0547C83.9271 20.1901 83.6302 20.3854 83.4063 20.6406C83.1875 20.8906 83.0781 21.224 83.0781 21.6406C83.0781 22.2187 83.2917 22.6562 83.7188 22.9531C84.1458 23.2448 84.6901 23.3906 85.3516 23.3906ZM96.2129 9V25H93.877V9H96.2129ZM110.545 25H105.365V9H110.709C112.277 9 113.623 9.32031 114.748 9.96094C115.873 10.5964 116.735 11.5104 117.334 12.7031C117.938 13.8906 118.24 15.3151 118.24 16.9766C118.24 18.6432 117.936 20.0755 117.326 21.2734C116.722 22.4714 115.847 23.3932 114.701 24.0391C113.555 24.6797 112.17 25 110.545 25ZM107.779 22.8906H110.412C111.631 22.8906 112.644 22.6615 113.451 22.2031C114.258 21.7396 114.863 21.0703 115.264 20.1953C115.665 19.3151 115.865 18.2422 115.865 16.9766C115.865 15.7214 115.665 14.6562 115.264 13.7812C114.868 12.9062 114.277 12.2422 113.49 11.7891C112.704 11.3359 111.727 11.1094 110.561 11.1094H107.779V22.8906ZM126.227 25.2422C125.044 25.2422 124.026 24.9896 123.172 24.4844C122.323 23.974 121.667 23.2578 121.203 22.3359C120.745 21.4089 120.516 20.3229 120.516 19.0781C120.516 17.849 120.745 16.7656 121.203 15.8281C121.667 14.8906 122.313 14.1589 123.141 13.6328C123.974 13.1068 124.948 12.8438 126.063 12.8438C126.74 12.8438 127.396 12.9557 128.031 13.1797C128.667 13.4036 129.237 13.7552 129.742 14.2344C130.247 14.7135 130.646 15.3359 130.938 16.1016C131.229 16.862 131.375 17.7865 131.375 18.875V19.7031H121.836V17.9531H129.086C129.086 17.3385 128.961 16.7943 128.711 16.3203C128.461 15.8411 128.109 15.4635 127.656 15.1875C127.208 14.9115 126.682 14.7734 126.078 14.7734C125.422 14.7734 124.849 14.9349 124.359 15.2578C123.875 15.5755 123.5 15.9922 123.234 16.5078C122.974 17.0182 122.844 17.5729 122.844 18.1719V19.5391C122.844 20.3411 122.984 21.0234 123.266 21.5859C123.552 22.1484 123.951 22.5781 124.461 22.875C124.971 23.1667 125.568 23.3125 126.25 23.3125C126.693 23.3125 127.096 23.25 127.461 23.125C127.826 22.9948 128.141 22.8021 128.406 22.5469C128.672 22.2917 128.875 21.9766 129.016 21.6016L131.227 22C131.049 22.651 130.732 23.2214 130.273 23.7109C129.82 24.1953 129.25 24.5729 128.563 24.8437C127.88 25.1094 127.102 25.2422 126.227 25.2422ZM142.959 15.9297L140.842 16.3047C140.753 16.0339 140.613 15.776 140.42 15.5312C140.232 15.2865 139.977 15.0859 139.654 14.9297C139.331 14.7734 138.928 14.6953 138.443 14.6953C137.782 14.6953 137.23 14.8437 136.787 15.1406C136.344 15.4323 136.123 15.8099 136.123 16.2734C136.123 16.6745 136.271 16.9974 136.568 17.2422C136.865 17.487 137.344 17.6875 138.006 17.8437L139.912 18.2812C141.016 18.5365 141.839 18.9297 142.381 19.4609C142.923 19.9922 143.193 20.6823 143.193 21.5313C143.193 22.25 142.985 22.8906 142.568 23.4531C142.157 24.0104 141.581 24.4479 140.842 24.7656C140.107 25.0833 139.256 25.2422 138.287 25.2422C136.943 25.2422 135.847 24.9557 134.998 24.3828C134.149 23.8047 133.628 22.9844 133.436 21.9219L135.693 21.5781C135.834 22.1667 136.123 22.612 136.561 22.9141C136.998 23.2109 137.568 23.3594 138.271 23.3594C139.037 23.3594 139.649 23.2005 140.107 22.8828C140.566 22.5599 140.795 22.1667 140.795 21.7031C140.795 21.3281 140.654 21.013 140.373 20.7578C140.097 20.5026 139.673 20.3099 139.1 20.1797L137.068 19.7344C135.949 19.4792 135.12 19.0729 134.584 18.5156C134.053 17.9583 133.787 17.2526 133.787 16.3984C133.787 15.6901 133.985 15.0703 134.381 14.5391C134.777 14.0078 135.324 13.5937 136.021 13.2969C136.719 12.9948 137.519 12.8438 138.42 12.8438C139.717 12.8438 140.738 13.125 141.482 13.6875C142.227 14.2448 142.719 14.9922 142.959 15.9297ZM145.762 25V13H148.098V25H145.762ZM146.941 11.1484C146.535 11.1484 146.186 11.013 145.895 10.7422C145.608 10.4661 145.465 10.138 145.465 9.75781C145.465 9.3724 145.608 9.04427 145.895 8.77344C146.186 8.4974 146.535 8.35937 146.941 8.35937C147.348 8.35937 147.694 8.4974 147.98 8.77344C148.272 9.04427 148.418 9.3724 148.418 9.75781C148.418 10.138 148.272 10.4661 147.98 10.7422C147.694 11.013 147.348 11.1484 146.941 11.1484ZM156.271 29.75C155.318 29.75 154.498 29.625 153.811 29.375C153.128 29.125 152.571 28.7943 152.139 28.3828C151.706 27.9714 151.383 27.5208 151.17 27.0313L153.178 26.2031C153.318 26.4323 153.506 26.6745 153.74 26.9297C153.98 27.1901 154.303 27.4115 154.709 27.5938C155.12 27.776 155.649 27.8672 156.295 27.8672C157.18 27.8672 157.912 27.651 158.49 27.2188C159.068 26.7917 159.357 26.1094 159.357 25.1719V22.8125H159.209C159.068 23.0677 158.865 23.3516 158.6 23.6641C158.339 23.9766 157.98 24.2474 157.521 24.4766C157.063 24.7057 156.467 24.8203 155.732 24.8203C154.785 24.8203 153.93 24.599 153.17 24.1562C152.415 23.7083 151.816 23.0495 151.373 22.1797C150.936 21.3047 150.717 20.2292 150.717 18.9531C150.717 17.6771 150.933 16.5833 151.365 15.6719C151.803 14.7604 152.402 14.0625 153.162 13.5781C153.923 13.0885 154.785 12.8438 155.748 12.8438C156.493 12.8438 157.094 12.9688 157.553 13.2187C158.011 13.4635 158.368 13.75 158.623 14.0781C158.883 14.4062 159.084 14.6953 159.225 14.9453H159.396V13H161.686V25.2656C161.686 26.2969 161.446 27.1432 160.967 27.8047C160.488 28.4661 159.839 28.9557 159.021 29.2734C158.209 29.5911 157.292 29.75 156.271 29.75ZM156.248 22.8828C156.92 22.8828 157.488 22.7266 157.951 22.4141C158.42 22.0964 158.774 21.6432 159.014 21.0547C159.258 20.4609 159.381 19.75 159.381 18.9219C159.381 18.1146 159.261 17.4036 159.021 16.7891C158.782 16.1745 158.43 15.6953 157.967 15.3516C157.503 15.0026 156.93 14.8281 156.248 14.8281C155.545 14.8281 154.959 15.0104 154.49 15.375C154.021 15.7344 153.667 16.224 153.428 16.8437C153.193 17.4635 153.076 18.1562 153.076 18.9219C153.076 19.7083 153.196 20.3984 153.436 20.9922C153.675 21.5859 154.029 22.0495 154.498 22.3828C154.972 22.7161 155.555 22.8828 156.248 22.8828ZM167.154 17.875V25H164.818V13H167.061V14.9531H167.209C167.485 14.3177 167.917 13.8073 168.506 13.4219C169.1 13.0365 169.847 12.8438 170.748 12.8438C171.566 12.8438 172.282 13.0156 172.896 13.3594C173.511 13.6979 173.988 14.2031 174.326 14.875C174.665 15.5469 174.834 16.3776 174.834 17.3672V25H172.498V17.6484C172.498 16.7786 172.271 16.099 171.818 15.6094C171.365 15.1146 170.743 14.8672 169.951 14.8672C169.41 14.8672 168.928 14.9844 168.506 15.2187C168.089 15.4531 167.758 15.7969 167.514 16.25C167.274 16.6979 167.154 17.2396 167.154 17.875ZM192.781 15.9297L190.664 16.3047C190.576 16.0339 190.435 15.776 190.242 15.5312C190.055 15.2865 189.799 15.0859 189.477 14.9297C189.154 14.7734 188.75 14.6953 188.266 14.6953C187.604 14.6953 187.052 14.8437 186.609 15.1406C186.167 15.4323 185.945 15.8099 185.945 16.2734C185.945 16.6745 186.094 16.9974 186.391 17.2422C186.688 17.487 187.167 17.6875 187.828 17.8437L189.734 18.2812C190.839 18.5365 191.661 18.9297 192.203 19.4609C192.745 19.9922 193.016 20.6823 193.016 21.5313C193.016 22.25 192.807 22.8906 192.391 23.4531C191.979 24.0104 191.404 24.4479 190.664 24.7656C189.93 25.0833 189.078 25.2422 188.109 25.2422C186.766 25.2422 185.669 24.9557 184.82 24.3828C183.971 23.8047 183.451 22.9844 183.258 21.9219L185.516 21.5781C185.656 22.1667 185.945 22.612 186.383 22.9141C186.82 23.2109 187.391 23.3594 188.094 23.3594C188.859 23.3594 189.471 23.2005 189.93 22.8828C190.388 22.5599 190.617 22.1667 190.617 21.7031C190.617 21.3281 190.477 21.013 190.195 20.7578C189.919 20.5026 189.495 20.3099 188.922 20.1797L186.891 19.7344C185.771 19.4792 184.943 19.0729 184.406 18.5156C183.875 17.9583 183.609 17.2526 183.609 16.3984C183.609 15.6901 183.807 15.0703 184.203 14.5391C184.599 14.0078 185.146 13.5937 185.844 13.2969C186.542 12.9948 187.341 12.8438 188.242 12.8438C189.539 12.8438 190.56 13.125 191.305 13.6875C192.049 14.2448 192.542 14.9922 192.781 15.9297ZM197.061 29.5C196.712 29.5 196.394 29.4714 196.107 29.4141C195.821 29.362 195.607 29.3047 195.467 29.2422L196.029 27.3281C196.456 27.4427 196.837 27.4922 197.17 27.4766C197.503 27.4609 197.798 27.3359 198.053 27.1016C198.313 26.8672 198.542 26.4844 198.74 25.9531L199.029 25.1563L194.639 13H197.139L200.178 22.3125H200.303L203.342 13H205.85L200.904 26.6016C200.675 27.2266 200.383 27.7552 200.029 28.1875C199.675 28.625 199.253 28.9531 198.764 29.1719C198.274 29.3906 197.706 29.5 197.061 29.5ZM217.037 15.9297L214.92 16.3047C214.831 16.0339 214.691 15.776 214.498 15.5312C214.311 15.2865 214.055 15.0859 213.732 14.9297C213.41 14.7734 213.006 14.6953 212.521 14.6953C211.86 14.6953 211.308 14.8437 210.865 15.1406C210.423 15.4323 210.201 15.8099 210.201 16.2734C210.201 16.6745 210.35 16.9974 210.646 17.2422C210.943 17.487 211.423 17.6875 212.084 17.8437L213.99 18.2812C215.094 18.5365 215.917 18.9297 216.459 19.4609C217.001 19.9922 217.271 20.6823 217.271 21.5313C217.271 22.25 217.063 22.8906 216.646 23.4531C216.235 24.0104 215.66 24.4479 214.92 24.7656C214.186 25.0833 213.334 25.2422 212.365 25.2422C211.021 25.2422 209.925 24.9557 209.076 24.3828C208.227 23.8047 207.706 22.9844 207.514 21.9219L209.771 21.5781C209.912 22.1667 210.201 22.612 210.639 22.9141C211.076 23.2109 211.646 23.3594 212.35 23.3594C213.115 23.3594 213.727 23.2005 214.186 22.8828C214.644 22.5599 214.873 22.1667 214.873 21.7031C214.873 21.3281 214.732 21.013 214.451 20.7578C214.175 20.5026 213.751 20.3099 213.178 20.1797L211.146 19.7344C210.027 19.4792 209.199 19.0729 208.662 18.5156C208.131 17.9583 207.865 17.2526 207.865 16.3984C207.865 15.6901 208.063 15.0703 208.459 14.5391C208.855 14.0078 209.402 13.5937 210.1 13.2969C210.798 12.9948 211.597 12.8438 212.498 12.8438C213.795 12.8438 214.816 13.125 215.561 13.6875C216.305 14.2448 216.798 14.9922 217.037 15.9297ZM225.441 13V14.875H218.887V13H225.441ZM220.645 10.125H222.98V21.4766C222.98 21.9297 223.048 22.2708 223.184 22.5C223.319 22.724 223.493 22.8776 223.707 22.9609C223.926 23.0391 224.163 23.0781 224.418 23.0781C224.605 23.0781 224.77 23.0651 224.91 23.0391C225.051 23.013 225.16 22.9922 225.238 22.9766L225.66 24.9062C225.525 24.9583 225.332 25.0104 225.082 25.0625C224.832 25.1198 224.52 25.151 224.145 25.1563C223.53 25.1667 222.957 25.0573 222.426 24.8281C221.895 24.599 221.465 24.2448 221.137 23.7656C220.809 23.2865 220.645 22.6849 220.645 21.9609V10.125ZM233.068 25.2422C231.886 25.2422 230.868 24.9896 230.014 24.4844C229.165 23.974 228.508 23.2578 228.045 22.3359C227.587 21.4089 227.357 20.3229 227.357 19.0781C227.357 17.849 227.587 16.7656 228.045 15.8281C228.508 14.8906 229.154 14.1589 229.982 13.6328C230.816 13.1068 231.79 12.8438 232.904 12.8438C233.581 12.8438 234.238 12.9557 234.873 13.1797C235.508 13.4036 236.079 13.7552 236.584 14.2344C237.089 14.7135 237.488 15.3359 237.779 16.1016C238.071 16.862 238.217 17.7865 238.217 18.875V19.7031H228.678V17.9531H235.928C235.928 17.3385 235.803 16.7943 235.553 16.3203C235.303 15.8411 234.951 15.4635 234.498 15.1875C234.05 14.9115 233.524 14.7734 232.92 14.7734C232.264 14.7734 231.691 14.9349 231.201 15.2578C230.717 15.5755 230.342 15.9922 230.076 16.5078C229.816 17.0182 229.686 17.5729 229.686 18.1719V19.5391C229.686 20.3411 229.826 21.0234 230.107 21.5859C230.394 22.1484 230.792 22.5781 231.303 22.875C231.813 23.1667 232.41 23.3125 233.092 23.3125C233.535 23.3125 233.938 23.25 234.303 23.125C234.667 22.9948 234.982 22.8021 235.248 22.5469C235.514 22.2917 235.717 21.9766 235.857 21.6016L238.068 22C237.891 22.651 237.574 23.2214 237.115 23.7109C236.662 24.1953 236.092 24.5729 235.404 24.8437C234.722 25.1094 233.943 25.2422 233.068 25.2422ZM240.809 25V13H243.051V14.9531H243.199C243.449 14.2917 243.858 13.776 244.426 13.4063C244.993 13.0313 245.673 12.8438 246.465 12.8438C247.267 12.8438 247.939 13.0313 248.48 13.4063C249.027 13.7812 249.431 14.2969 249.691 14.9531H249.816C250.103 14.3125 250.559 13.8021 251.184 13.4219C251.809 13.0365 252.553 12.8438 253.418 12.8438C254.507 12.8438 255.395 13.1849 256.082 13.8672C256.775 14.5495 257.121 15.5781 257.121 16.9531V25H254.785V17.1719C254.785 16.3594 254.564 15.7708 254.121 15.4062C253.678 15.0417 253.15 14.8594 252.535 14.8594C251.775 14.8594 251.184 15.0937 250.762 15.5625C250.34 16.026 250.129 16.6224 250.129 17.3516V25H247.801V17.0234C247.801 16.3724 247.598 15.849 247.191 15.4531C246.785 15.0573 246.257 14.8594 245.605 14.8594C245.163 14.8594 244.754 14.9766 244.379 15.2109C244.009 15.4401 243.71 15.7604 243.48 16.1719C243.257 16.5833 243.145 17.0599 243.145 17.6016V25H240.809Z" fill="white"/>
</svg>
