<svg width="48" height="32" viewBox="0 0 48 32" fill="none" xmlns="http://www.w3.org/2000/svg">
<g filter="url(#filter0_iii_2094_399)">
<path d="M30.5003 16C30.5003 24.0081 24.0083 30.5 16.0001 30.5C7.99192 30.5 1.5 24.0081 1.5 16C1.5 7.99188 7.99192 1.5 16.0001 1.5C24.0083 1.5 30.5003 7.99188 30.5003 16Z" stroke="url(#paint0_linear_2094_399)" stroke-width="3"/>
<path d="M46.5003 16C46.5003 24.0081 40.0083 30.5 32.0001 30.5C23.9919 30.5 17.5 24.0081 17.5 16C17.5 7.99188 23.9919 1.5 32.0001 1.5C40.0083 1.5 46.5003 7.99188 46.5003 16Z" stroke="url(#paint1_linear_2094_399)" stroke-width="3"/>
</g>
<defs>
<filter id="filter0_iii_2094_399" x="0" y="-1" width="48" height="34" filterUnits="userSpaceOnUse" color-interpolation-filters="sRGB">
<feFlood flood-opacity="0" result="BackgroundImageFix"/>
<feBlend mode="normal" in="SourceGraphic" in2="BackgroundImageFix" result="shape"/>
<feColorMatrix in="SourceAlpha" type="matrix" values="0 0 0 0 0 0 0 0 0 0 0 0 0 0 0 0 0 0 127 0" result="hardAlpha"/>
<feOffset dy="1"/>
<feGaussianBlur stdDeviation="0.5"/>
<feComposite in2="hardAlpha" operator="arithmetic" k2="-1" k3="1"/>
<feColorMatrix type="matrix" values="0 0 0 0 1 0 0 0 0 1 0 0 0 0 1 0 0 0 0.24 0"/>
<feBlend mode="normal" in2="shape" result="effect1_innerShadow_2094_399"/>
<feColorMatrix in="SourceAlpha" type="matrix" values="0 0 0 0 0 0 0 0 0 0 0 0 0 0 0 0 0 0 127 0" result="hardAlpha"/>
<feOffset dy="0.5"/>
<feGaussianBlur stdDeviation="0.25"/>
<feComposite in2="hardAlpha" operator="arithmetic" k2="-1" k3="1"/>
<feColorMatrix type="matrix" values="0 0 0 0 1 0 0 0 0 1 0 0 0 0 1 0 0 0 0.3 0"/>
<feBlend mode="normal" in2="effect1_innerShadow_2094_399" result="effect2_innerShadow_2094_399"/>
<feColorMatrix in="SourceAlpha" type="matrix" values="0 0 0 0 0 0 0 0 0 0 0 0 0 0 0 0 0 0 127 0" result="hardAlpha"/>
<feOffset dy="-1"/>
<feGaussianBlur stdDeviation="0.5"/>
<feComposite in2="hardAlpha" operator="arithmetic" k2="-1" k3="1"/>
<feColorMatrix type="matrix" values="0 0 0 0 0 0 0 0 0 0 0 0 0 0 0 0 0 0 0.4 0"/>
<feBlend mode="soft-light" in2="effect2_innerShadow_2094_399" result="effect3_innerShadow_2094_399"/>
</filter>
<linearGradient id="paint0_linear_2094_399" x1="-1.29731" y1="33.7297" x2="29.3188" y2="0.259888" gradientUnits="userSpaceOnUse">
<stop stop-color="#0565FF"/>
<stop offset="1" stop-color="#0565FF" stop-opacity="0.4"/>
</linearGradient>
<linearGradient id="paint1_linear_2094_399" x1="14.7027" y1="33.7297" x2="45.3188" y2="0.259888" gradientUnits="userSpaceOnUse">
<stop stop-color="#0565FF"/>
<stop offset="1" stop-color="#0565FF" stop-opacity="0.4"/>
</linearGradient>
</defs>
</svg>
