<svg width="26" height="26" viewBox="0 0 26 26" fill="none" xmlns="http://www.w3.org/2000/svg">
<g id="Vector">
<path fill-rule="evenodd" clip-rule="evenodd" d="M1.05469 16.3999C1.4689 16.3999 1.80469 16.7357 1.80469 17.1499V22.4833C1.80469 22.9916 2.00663 23.4792 2.36608 23.8386C2.72553 24.1981 3.21306 24.4 3.7214 24.4H22.3884C22.8967 24.4 23.3842 24.1981 23.7437 23.8386C24.1031 23.4792 24.3051 22.9916 24.3051 22.4833V17.1499C24.3051 16.7357 24.6409 16.3999 25.0551 16.3999C25.4693 16.3999 25.8051 16.7357 25.8051 17.1499V22.4833C25.8051 23.3895 25.4451 24.2585 24.8044 24.8993C24.1636 25.54 23.2945 25.9 22.3884 25.9H3.7214C2.81523 25.9 1.94618 25.54 1.30542 24.8993C0.664661 24.2585 0.304688 23.3895 0.304688 22.4833V17.1499C0.304688 16.7357 0.640474 16.3999 1.05469 16.3999Z" fill="white"/>
<path fill-rule="evenodd" clip-rule="evenodd" d="M5.85779 9.95195C6.15068 9.65906 6.62556 9.65906 6.91845 9.95195L13.0549 16.0884L19.1913 9.95195C19.4842 9.65906 19.9591 9.65906 20.252 9.95195C20.5449 10.2448 20.5449 10.7197 20.252 11.0126L13.5852 17.6794C13.2923 17.9723 12.8175 17.9723 12.5246 17.6794L5.85779 11.0126C5.5649 10.7197 5.5649 10.2448 5.85779 9.95195Z" fill="white"/>
<path fill-rule="evenodd" clip-rule="evenodd" d="M13.0549 0.399902C13.4691 0.399902 13.8049 0.735689 13.8049 1.1499V17.1502C13.8049 17.5644 13.4691 17.9002 13.0549 17.9002C12.6406 17.9002 12.3049 17.5644 12.3049 17.1502V1.1499C12.3049 0.735689 12.6406 0.399902 13.0549 0.399902Z" fill="white"/>
</g>
</svg>
