<svg width="90" height="90" viewBox="0 0 90 90" fill="none" xmlns="http://www.w3.org/2000/svg">
<g id="Group 369">
<g id="Ellipse 198" filter="url(#filter0_b_1767_262)">
<circle cx="45" cy="45" r="45" fill="url(#paint0_linear_1767_262)"/>
<circle cx="45" cy="45" r="43.5" stroke="url(#paint1_linear_1767_262)" stroke-width="3"/>
</g>
<g id="Group 367" filter="url(#filter1_diii_1767_262)">
<path id="Union" fill-rule="evenodd" clip-rule="evenodd" d="M39.4025 23.5C38.2979 23.5 37.4025 24.3954 37.4025 25.5V35.1V37.7408L19.3727 62.9825C18.7307 63.8813 18.9389 65.1304 19.8377 65.7724C20.7365 66.4145 21.9856 66.2063 22.6276 65.3075L39.605 41.5392L49.0201 52.5235C49.3827 52.9465 49.9052 53.1991 50.4619 53.2204C51.0185 53.2418 51.5589 53.03 51.9528 52.6361L55.8057 48.7833L67.3617 65.2919C67.9951 66.1968 69.2422 66.4169 70.1471 65.7834C71.052 65.15 71.272 63.903 70.6386 62.9981L57.7155 44.5365C57.3765 44.0522 56.8405 43.7426 56.2515 43.6911C55.6625 43.6395 55.0809 43.8512 54.6629 44.2692L50.6516 48.2805L41.4025 37.4899V37.1H56.2025C57.3071 37.1 58.2025 36.2046 58.2025 35.1V25.5C58.2025 24.3954 57.3071 23.5 56.2025 23.5H39.4025ZM54.2025 33.1H41.4025V27.5H54.2025V33.1Z" fill="url(#paint2_linear_1767_262)"/>
</g>
</g>
<defs>
<filter id="filter0_b_1767_262" x="-24" y="-24" width="138" height="138" filterUnits="userSpaceOnUse" color-interpolation-filters="sRGB">
<feFlood flood-opacity="0" result="BackgroundImageFix"/>
<feGaussianBlur in="BackgroundImageFix" stdDeviation="12"/>
<feComposite in2="SourceAlpha" operator="in" result="effect1_backgroundBlur_1767_262"/>
<feBlend mode="normal" in="SourceGraphic" in2="effect1_backgroundBlur_1767_262" result="shape"/>
</filter>
<filter id="filter1_diii_1767_262" x="16" y="22.5" width="58" height="50.6455" filterUnits="userSpaceOnUse" color-interpolation-filters="sRGB">
<feFlood flood-opacity="0" result="BackgroundImageFix"/>
<feColorMatrix in="SourceAlpha" type="matrix" values="0 0 0 0 0 0 0 0 0 0 0 0 0 0 0 0 0 0 127 0" result="hardAlpha"/>
<feOffset dy="4"/>
<feGaussianBlur stdDeviation="1.5"/>
<feComposite in2="hardAlpha" operator="out"/>
<feColorMatrix type="matrix" values="0 0 0 0 0 0 0 0 0 0 0 0 0 0 0 0 0 0 0.2 0"/>
<feBlend mode="normal" in2="BackgroundImageFix" result="effect1_dropShadow_1767_262"/>
<feBlend mode="normal" in="SourceGraphic" in2="effect1_dropShadow_1767_262" result="shape"/>
<feColorMatrix in="SourceAlpha" type="matrix" values="0 0 0 0 0 0 0 0 0 0 0 0 0 0 0 0 0 0 127 0" result="hardAlpha"/>
<feOffset dy="1"/>
<feGaussianBlur stdDeviation="0.5"/>
<feComposite in2="hardAlpha" operator="arithmetic" k2="-1" k3="1"/>
<feColorMatrix type="matrix" values="0 0 0 0 1 0 0 0 0 1 0 0 0 0 1 0 0 0 0.24 0"/>
<feBlend mode="normal" in2="shape" result="effect2_innerShadow_1767_262"/>
<feColorMatrix in="SourceAlpha" type="matrix" values="0 0 0 0 0 0 0 0 0 0 0 0 0 0 0 0 0 0 127 0" result="hardAlpha"/>
<feOffset dy="0.5"/>
<feGaussianBlur stdDeviation="0.25"/>
<feComposite in2="hardAlpha" operator="arithmetic" k2="-1" k3="1"/>
<feColorMatrix type="matrix" values="0 0 0 0 1 0 0 0 0 1 0 0 0 0 1 0 0 0 0.3 0"/>
<feBlend mode="normal" in2="effect2_innerShadow_1767_262" result="effect3_innerShadow_1767_262"/>
<feColorMatrix in="SourceAlpha" type="matrix" values="0 0 0 0 0 0 0 0 0 0 0 0 0 0 0 0 0 0 127 0" result="hardAlpha"/>
<feOffset dy="-1"/>
<feGaussianBlur stdDeviation="0.5"/>
<feComposite in2="hardAlpha" operator="arithmetic" k2="-1" k3="1"/>
<feColorMatrix type="matrix" values="0 0 0 0 0 0 0 0 0 0 0 0 0 0 0 0 0 0 0.4 0"/>
<feBlend mode="soft-light" in2="effect3_innerShadow_1767_262" result="effect4_innerShadow_1767_262"/>
</filter>
<linearGradient id="paint0_linear_1767_262" x1="45" y1="0" x2="45" y2="90" gradientUnits="userSpaceOnUse">
<stop stop-color="#DEDEDE" stop-opacity="0.06"/>
<stop offset="1" stop-color="#999DFF" stop-opacity="0.15"/>
</linearGradient>
<linearGradient id="paint1_linear_1767_262" x1="-2.20206e-06" y1="90" x2="80" y2="16.1111" gradientUnits="userSpaceOnUse">
<stop stop-color="white" stop-opacity="0.06"/>
<stop offset="1" stop-color="white" stop-opacity="0.02"/>
</linearGradient>
<linearGradient id="paint2_linear_1767_262" x1="45.0002" y1="23.5" x2="45.0002" y2="66.1452" gradientUnits="userSpaceOnUse">
<stop stop-color="#5D9CFF"/>
<stop offset="1" stop-color="#144DAA"/>
</linearGradient>
</defs>
</svg>
