<svg width="43" height="34" viewBox="0 0 43 34" fill="none" xmlns="http://www.w3.org/2000/svg">
<mask id="path-1-inside-1_1178_5119" fill="white">
<path fill-rule="evenodd" clip-rule="evenodd" d="M26.7071 0.292893C26.3166 -0.0976311 25.6834 -0.0976311 25.2929 0.292893C24.9024 0.683417 24.9024 1.31658 25.2929 1.70711L39.5858 16L1 16C0.447715 16 0 16.4477 0 17C0 17.5523 0.447715 18 1 18L39.5858 18L25.2929 32.2929C24.9024 32.6834 24.9024 33.3166 25.2929 33.7071C25.6834 34.0976 26.3166 34.0976 26.7071 33.7071L42.7071 17.7071C42.8946 17.5196 43 17.2652 43 17C43 16.7348 42.8946 16.4804 42.7071 16.2929L26.7071 0.292893Z"/>
</mask>
<path d="M25.2929 0.292893L23.1716 -1.82843L23.1716 -1.82843L25.2929 0.292893ZM26.7071 0.292893L28.8284 -1.82843L28.8284 -1.82843L26.7071 0.292893ZM25.2929 1.70711L23.1716 3.82843V3.82843L25.2929 1.70711ZM39.5858 16V19H46.8284L41.7071 13.8787L39.5858 16ZM1 16L1 13H1V16ZM1 18L1 15H1V18ZM39.5858 18L41.7071 20.1213L46.8284 15L39.5858 15V18ZM25.2929 32.2929L23.1716 30.1716L23.1716 30.1716L25.2929 32.2929ZM25.2929 33.7071L27.4142 31.5858L27.4142 31.5858L25.2929 33.7071ZM26.7071 33.7071L24.5858 31.5858L24.5858 31.5858L26.7071 33.7071ZM42.7071 17.7071L44.8284 19.8284L44.8284 19.8284L42.7071 17.7071ZM42.7071 16.2929L44.8284 14.1716L44.8284 14.1716L42.7071 16.2929ZM27.4142 2.41422C26.6332 3.19526 25.3668 3.19526 24.5858 2.41422L28.8284 -1.82843C27.2663 -3.39052 24.7337 -3.39052 23.1716 -1.82843L27.4142 2.41422ZM27.4142 -0.414213C28.1953 0.366836 28.1953 1.63316 27.4142 2.41421L23.1716 -1.82843C21.6095 -0.266329 21.6095 2.26633 23.1716 3.82843L27.4142 -0.414213ZM41.7071 13.8787L27.4142 -0.414213L23.1716 3.82843L37.4645 18.1213L41.7071 13.8787ZM1 19L39.5858 19V13L1 13L1 19ZM3 17C3 18.1046 2.10457 19 1 19V13C-1.20914 13 -3 14.7909 -3 17H3ZM1 15C2.10457 15 3 15.8954 3 17H-3C-3 19.2091 -1.20914 21 1 21V15ZM39.5858 15L1 15L1 21L39.5858 21V15ZM27.4142 34.4142L41.7071 20.1213L37.4645 15.8787L23.1716 30.1716L27.4142 34.4142ZM27.4142 31.5858C28.1953 32.3668 28.1953 33.6332 27.4142 34.4142L23.1716 30.1716C21.6095 31.7337 21.6095 34.2663 23.1716 35.8284L27.4142 31.5858ZM24.5858 31.5858C25.3668 30.8047 26.6332 30.8047 27.4142 31.5858L23.1716 35.8284C24.7337 37.3905 27.2663 37.3905 28.8284 35.8284L24.5858 31.5858ZM40.5858 15.5858L24.5858 31.5858L28.8284 35.8284L44.8284 19.8284L40.5858 15.5858ZM40 17C40 16.4696 40.2107 15.9609 40.5858 15.5858L44.8284 19.8284C45.5786 19.0783 46 18.0609 46 17H40ZM40.5858 18.4142C40.2107 18.0391 40 17.5304 40 17H46C46 15.9391 45.5786 14.9217 44.8284 14.1716L40.5858 18.4142ZM24.5858 2.41421L40.5858 18.4142L44.8284 14.1716L28.8284 -1.82843L24.5858 2.41421Z" fill="#DBDBDB" mask="url(#path-1-inside-1_1178_5119)"/>
</svg>
