<svg width="90" height="90" viewBox="0 0 90 90" fill="none" xmlns="http://www.w3.org/2000/svg">
<g id="Group 340">
<circle id="Ellipse 163" cx="45" cy="45" r="44" transform="rotate(90 45 45)" fill="url(#paint0_linear_1767_253)" stroke="url(#paint1_linear_1767_253)" stroke-width="2"/>
<g id="Star 1" filter="url(#filter0_diii_1767_253)">
<path d="M64.3986 49.8733C68.9401 48.6506 68.94 42.2071 64.3986 40.9844L53.1356 37.9518C52.9282 37.896 52.7661 37.7339 52.7103 37.5265L49.6777 26.2635C48.455 21.7221 42.0116 21.7221 40.7888 26.2635L37.7562 37.5265C37.7004 37.7339 37.5384 37.896 37.3309 37.9518L26.0679 40.9844C21.5265 42.2071 21.5265 48.6505 26.0679 49.8733L37.3309 52.9059C37.5383 52.9617 37.7004 53.1238 37.7562 53.3312L40.7888 64.5942C42.0116 69.1356 48.455 69.1356 49.6777 64.5942L52.7103 53.3312C52.7661 53.1238 52.9282 52.9617 53.1356 52.9059L64.3986 49.8733Z" stroke="url(#paint2_linear_1767_253)" stroke-width="4" shape-rendering="crispEdges"/>
</g>
</g>
<defs>
<filter id="filter0_diii_1767_253" x="17.6602" y="19.8574" width="55.1445" height="57.1426" filterUnits="userSpaceOnUse" color-interpolation-filters="sRGB">
<feFlood flood-opacity="0" result="BackgroundImageFix"/>
<feColorMatrix in="SourceAlpha" type="matrix" values="0 0 0 0 0 0 0 0 0 0 0 0 0 0 0 0 0 0 127 0" result="hardAlpha"/>
<feOffset dy="4"/>
<feGaussianBlur stdDeviation="1.5"/>
<feComposite in2="hardAlpha" operator="out"/>
<feColorMatrix type="matrix" values="0 0 0 0 0 0 0 0 0 0 0 0 0 0 0 0 0 0 0.2 0"/>
<feBlend mode="normal" in2="BackgroundImageFix" result="effect1_dropShadow_1767_253"/>
<feBlend mode="normal" in="SourceGraphic" in2="effect1_dropShadow_1767_253" result="shape"/>
<feColorMatrix in="SourceAlpha" type="matrix" values="0 0 0 0 0 0 0 0 0 0 0 0 0 0 0 0 0 0 127 0" result="hardAlpha"/>
<feOffset dy="1"/>
<feGaussianBlur stdDeviation="0.5"/>
<feComposite in2="hardAlpha" operator="arithmetic" k2="-1" k3="1"/>
<feColorMatrix type="matrix" values="0 0 0 0 1 0 0 0 0 1 0 0 0 0 1 0 0 0 0.24 0"/>
<feBlend mode="normal" in2="shape" result="effect2_innerShadow_1767_253"/>
<feColorMatrix in="SourceAlpha" type="matrix" values="0 0 0 0 0 0 0 0 0 0 0 0 0 0 0 0 0 0 127 0" result="hardAlpha"/>
<feOffset dy="0.5"/>
<feGaussianBlur stdDeviation="0.25"/>
<feComposite in2="hardAlpha" operator="arithmetic" k2="-1" k3="1"/>
<feColorMatrix type="matrix" values="0 0 0 0 1 0 0 0 0 1 0 0 0 0 1 0 0 0 0.3 0"/>
<feBlend mode="normal" in2="effect2_innerShadow_1767_253" result="effect3_innerShadow_1767_253"/>
<feColorMatrix in="SourceAlpha" type="matrix" values="0 0 0 0 0 0 0 0 0 0 0 0 0 0 0 0 0 0 127 0" result="hardAlpha"/>
<feOffset dy="-1"/>
<feGaussianBlur stdDeviation="0.5"/>
<feComposite in2="hardAlpha" operator="arithmetic" k2="-1" k3="1"/>
<feColorMatrix type="matrix" values="0 0 0 0 0 0 0 0 0 0 0 0 0 0 0 0 0 0 0.4 0"/>
<feBlend mode="soft-light" in2="effect3_innerShadow_1767_253" result="effect4_innerShadow_1767_253"/>
</filter>
<linearGradient id="paint0_linear_1767_253" x1="45" y1="-3.8147e-06" x2="45" y2="90" gradientUnits="userSpaceOnUse">
<stop stop-color="#DEDEDE" stop-opacity="0.06"/>
<stop offset="1" stop-color="#999DFF" stop-opacity="0.15"/>
</linearGradient>
<linearGradient id="paint1_linear_1767_253" x1="-6.01676e-06" y1="90" x2="80" y2="16.1111" gradientUnits="userSpaceOnUse">
<stop stop-color="white" stop-opacity="0.06"/>
<stop offset="1" stop-color="white" stop-opacity="0.02"/>
</linearGradient>
<linearGradient id="paint2_linear_1767_253" x1="65.8047" y1="45.4289" x2="24.6618" y2="45.4288" gradientUnits="userSpaceOnUse">
<stop stop-color="#C72C91"/>
<stop offset="1" stop-color="#F779BD"/>
</linearGradient>
</defs>
</svg>
